<mxfile host="Electron" modified="2024-03-17T11:25:14.587Z" agent="Mozilla/5.0 (Windows NT 10.0; Win64; x64) AppleWebKit/537.36 (KHTML, like Gecko) draw.io/23.1.5 Chrome/120.0.6099.109 Electron/28.1.0 Safari/537.36" etag="nwC6Uzuy1vcfS8sLwBt5" version="23.1.5" type="device">
  <diagram name="페이지-1" id="ow-QdyG75JapGskg5hmO">
    <mxGraphModel dx="1050" dy="621" grid="1" gridSize="10" guides="1" tooltips="1" connect="1" arrows="1" fold="1" page="1" pageScale="1" pageWidth="827" pageHeight="1169" math="0" shadow="0">
      <root>
        <mxCell id="0" />
        <mxCell id="1" parent="0" />
        <mxCell id="csHGYMj1OHVLA8BD_ufc-1" value="" style="rounded=1;whiteSpace=wrap;html=1;" vertex="1" parent="1">
          <mxGeometry x="150" y="240" width="400" height="200" as="geometry" />
        </mxCell>
        <mxCell id="csHGYMj1OHVLA8BD_ufc-17" style="edgeStyle=orthogonalEdgeStyle;rounded=0;orthogonalLoop=1;jettySize=auto;html=1;entryX=0;entryY=0.5;entryDx=0;entryDy=0;strokeWidth=2;" edge="1" parent="1" source="6d24NucKhEB1N1ymwuuv-1" target="csHGYMj1OHVLA8BD_ufc-9">
          <mxGeometry relative="1" as="geometry" />
        </mxCell>
        <mxCell id="csHGYMj1OHVLA8BD_ufc-21" style="edgeStyle=orthogonalEdgeStyle;rounded=0;orthogonalLoop=1;jettySize=auto;html=1;exitX=0.75;exitY=1;exitDx=0;exitDy=0;entryX=0;entryY=0.5;entryDx=0;entryDy=0;strokeWidth=2;" edge="1" parent="1" source="6d24NucKhEB1N1ymwuuv-1" target="csHGYMj1OHVLA8BD_ufc-10">
          <mxGeometry relative="1" as="geometry">
            <Array as="points">
              <mxPoint x="330" y="340" />
              <mxPoint x="360" y="340" />
              <mxPoint x="360" y="390" />
            </Array>
          </mxGeometry>
        </mxCell>
        <mxCell id="6d24NucKhEB1N1ymwuuv-1" value="STM32 Core" style="rounded=1;whiteSpace=wrap;html=1;" parent="1" vertex="1">
          <mxGeometry x="254.51" y="260" width="100.99" height="60" as="geometry" />
        </mxCell>
        <mxCell id="6d24NucKhEB1N1ymwuuv-8" value="MAX98357A&lt;br&gt;(I2S Module)" style="rounded=1;whiteSpace=wrap;html=1;" parent="1" vertex="1">
          <mxGeometry x="570" y="260" width="90" height="60" as="geometry" />
        </mxCell>
        <mxCell id="6d24NucKhEB1N1ymwuuv-13" value="ST7735S&lt;br&gt;(LCD)" style="rounded=1;whiteSpace=wrap;html=1;" parent="1" vertex="1">
          <mxGeometry x="570" y="360" width="90" height="60" as="geometry" />
        </mxCell>
        <mxCell id="6d24NucKhEB1N1ymwuuv-32" value="" style="pointerEvents=1;verticalLabelPosition=bottom;shadow=0;dashed=0;align=center;html=1;verticalAlign=top;shape=mxgraph.electrical.electro-mechanical.loudspeaker;" parent="1" vertex="1">
          <mxGeometry x="690" y="270" width="50" height="50" as="geometry" />
        </mxCell>
        <mxCell id="p9SlBcYkFY64zRqSbu0v-8" style="edgeStyle=orthogonalEdgeStyle;rounded=0;orthogonalLoop=1;jettySize=auto;html=1;exitX=1;exitY=0.5;exitDx=0;exitDy=0;entryX=0;entryY=0.5;entryDx=0;entryDy=0;strokeWidth=2;startArrow=none;startFill=0;" parent="1" source="p9SlBcYkFY64zRqSbu0v-7" target="6d24NucKhEB1N1ymwuuv-1" edge="1">
          <mxGeometry relative="1" as="geometry" />
        </mxCell>
        <mxCell id="p9SlBcYkFY64zRqSbu0v-7" value="ADC" style="rounded=1;whiteSpace=wrap;html=1;" parent="1" vertex="1">
          <mxGeometry x="164.99" y="260" width="69" height="60" as="geometry" />
        </mxCell>
        <mxCell id="csHGYMj1OHVLA8BD_ufc-11" style="edgeStyle=orthogonalEdgeStyle;rounded=0;orthogonalLoop=1;jettySize=auto;html=1;entryX=0;entryY=0.5;entryDx=0;entryDy=0;strokeWidth=2;" edge="1" parent="1" source="p9SlBcYkFY64zRqSbu0v-9" target="p9SlBcYkFY64zRqSbu0v-7">
          <mxGeometry relative="1" as="geometry" />
        </mxCell>
        <mxCell id="p9SlBcYkFY64zRqSbu0v-9" value="" style="html=1;dashed=0;aspect=fixed;verticalLabelPosition=bottom;verticalAlign=top;align=center;shape=mxgraph.gmdl.voice;strokeColor=#737373;fillColor=#737373;shadow=0;strokeWidth=2;sketch=0;" parent="1" vertex="1">
          <mxGeometry x="90" y="265" width="30" height="50" as="geometry" />
        </mxCell>
        <mxCell id="csHGYMj1OHVLA8BD_ufc-16" style="edgeStyle=orthogonalEdgeStyle;rounded=0;orthogonalLoop=1;jettySize=auto;html=1;entryX=0.5;entryY=1;entryDx=0;entryDy=0;strokeWidth=2;" edge="1" parent="1" source="p9SlBcYkFY64zRqSbu0v-11" target="csHGYMj1OHVLA8BD_ufc-6">
          <mxGeometry relative="1" as="geometry" />
        </mxCell>
        <mxCell id="p9SlBcYkFY64zRqSbu0v-11" value="CLI" style="rounded=1;whiteSpace=wrap;html=1;" parent="1" vertex="1">
          <mxGeometry x="277.76" y="460" width="54.49" height="40" as="geometry" />
        </mxCell>
        <mxCell id="csHGYMj1OHVLA8BD_ufc-19" style="edgeStyle=orthogonalEdgeStyle;rounded=0;orthogonalLoop=1;jettySize=auto;html=1;entryX=0;entryY=0.5;entryDx=0;entryDy=0;strokeWidth=2;" edge="1" parent="1" source="csHGYMj1OHVLA8BD_ufc-2" target="6d24NucKhEB1N1ymwuuv-8">
          <mxGeometry relative="1" as="geometry" />
        </mxCell>
        <mxCell id="csHGYMj1OHVLA8BD_ufc-2" value="I2C" style="rounded=1;whiteSpace=wrap;html=1;" vertex="1" parent="1">
          <mxGeometry x="470" y="260" width="60" height="60" as="geometry" />
        </mxCell>
        <mxCell id="csHGYMj1OHVLA8BD_ufc-22" style="edgeStyle=orthogonalEdgeStyle;rounded=0;orthogonalLoop=1;jettySize=auto;html=1;strokeWidth=2;" edge="1" parent="1" source="csHGYMj1OHVLA8BD_ufc-3" target="6d24NucKhEB1N1ymwuuv-13">
          <mxGeometry relative="1" as="geometry" />
        </mxCell>
        <mxCell id="csHGYMj1OHVLA8BD_ufc-3" value="SPI" style="rounded=1;whiteSpace=wrap;html=1;" vertex="1" parent="1">
          <mxGeometry x="470" y="360" width="63" height="60" as="geometry" />
        </mxCell>
        <mxCell id="csHGYMj1OHVLA8BD_ufc-13" style="edgeStyle=orthogonalEdgeStyle;rounded=0;orthogonalLoop=1;jettySize=auto;html=1;entryX=0.25;entryY=1;entryDx=0;entryDy=0;strokeWidth=2;" edge="1" parent="1" source="csHGYMj1OHVLA8BD_ufc-5" target="6d24NucKhEB1N1ymwuuv-1">
          <mxGeometry relative="1" as="geometry">
            <Array as="points">
              <mxPoint x="199" y="340" />
              <mxPoint x="280" y="340" />
            </Array>
          </mxGeometry>
        </mxCell>
        <mxCell id="csHGYMj1OHVLA8BD_ufc-5" value="SDIO&lt;br&gt;/&lt;br&gt;FATFS" style="rounded=1;whiteSpace=wrap;html=1;" vertex="1" parent="1">
          <mxGeometry x="163.99" y="360" width="70" height="60" as="geometry" />
        </mxCell>
        <mxCell id="csHGYMj1OHVLA8BD_ufc-12" style="edgeStyle=orthogonalEdgeStyle;rounded=0;orthogonalLoop=1;jettySize=auto;html=1;entryX=0.5;entryY=1;entryDx=0;entryDy=0;strokeWidth=2;" edge="1" parent="1" source="csHGYMj1OHVLA8BD_ufc-6" target="6d24NucKhEB1N1ymwuuv-1">
          <mxGeometry relative="1" as="geometry" />
        </mxCell>
        <mxCell id="csHGYMj1OHVLA8BD_ufc-6" value="USB CDC&lt;br&gt;/&lt;br&gt;UART" style="rounded=1;whiteSpace=wrap;html=1;" vertex="1" parent="1">
          <mxGeometry x="262.26" y="360" width="85.49" height="60" as="geometry" />
        </mxCell>
        <mxCell id="csHGYMj1OHVLA8BD_ufc-15" style="edgeStyle=orthogonalEdgeStyle;rounded=0;orthogonalLoop=1;jettySize=auto;html=1;entryX=0.5;entryY=1;entryDx=0;entryDy=0;strokeWidth=2;" edge="1" parent="1" source="csHGYMj1OHVLA8BD_ufc-7" target="csHGYMj1OHVLA8BD_ufc-5">
          <mxGeometry relative="1" as="geometry" />
        </mxCell>
        <mxCell id="csHGYMj1OHVLA8BD_ufc-7" value="NS-SD01&lt;br&gt;(SD Card)" style="rounded=1;whiteSpace=wrap;html=1;" vertex="1" parent="1">
          <mxGeometry x="160" y="460" width="78.98" height="50" as="geometry" />
        </mxCell>
        <mxCell id="csHGYMj1OHVLA8BD_ufc-9" value="Helix MP3 Decoder" style="rounded=1;whiteSpace=wrap;html=1;" vertex="1" parent="1">
          <mxGeometry x="376" y="260" width="76" height="60" as="geometry" />
        </mxCell>
        <mxCell id="csHGYMj1OHVLA8BD_ufc-10" value="DSP Lib" style="rounded=1;whiteSpace=wrap;html=1;" vertex="1" parent="1">
          <mxGeometry x="376" y="360" width="76" height="60" as="geometry" />
        </mxCell>
        <mxCell id="csHGYMj1OHVLA8BD_ufc-18" value="" style="endArrow=classic;html=1;rounded=0;entryX=0;entryY=0.5;entryDx=0;entryDy=0;exitX=1;exitY=0.5;exitDx=0;exitDy=0;strokeWidth=2;" edge="1" parent="1" source="csHGYMj1OHVLA8BD_ufc-9" target="csHGYMj1OHVLA8BD_ufc-2">
          <mxGeometry width="50" height="50" relative="1" as="geometry">
            <mxPoint x="390" y="350" as="sourcePoint" />
            <mxPoint x="440" y="300" as="targetPoint" />
          </mxGeometry>
        </mxCell>
        <mxCell id="csHGYMj1OHVLA8BD_ufc-20" style="edgeStyle=orthogonalEdgeStyle;rounded=0;orthogonalLoop=1;jettySize=auto;html=1;entryX=0;entryY=0.4;entryDx=0;entryDy=0;entryPerimeter=0;strokeWidth=2;" edge="1" parent="1" source="6d24NucKhEB1N1ymwuuv-8" target="6d24NucKhEB1N1ymwuuv-32">
          <mxGeometry relative="1" as="geometry" />
        </mxCell>
        <mxCell id="csHGYMj1OHVLA8BD_ufc-23" value="" style="endArrow=classic;html=1;rounded=0;entryX=0;entryY=0.5;entryDx=0;entryDy=0;exitX=1;exitY=0.5;exitDx=0;exitDy=0;strokeWidth=2;" edge="1" parent="1" source="csHGYMj1OHVLA8BD_ufc-10" target="csHGYMj1OHVLA8BD_ufc-3">
          <mxGeometry width="50" height="50" relative="1" as="geometry">
            <mxPoint x="390" y="350" as="sourcePoint" />
            <mxPoint x="440" y="300" as="targetPoint" />
          </mxGeometry>
        </mxCell>
        <mxCell id="csHGYMj1OHVLA8BD_ufc-24" value="&lt;b style=&quot;font-size: 15px;&quot;&gt;MCU&lt;/b&gt;" style="text;html=1;align=center;verticalAlign=middle;whiteSpace=wrap;rounded=0;fontSize=15;" vertex="1" parent="1">
          <mxGeometry x="320" y="210" width="60" height="30" as="geometry" />
        </mxCell>
      </root>
    </mxGraphModel>
  </diagram>
</mxfile>
